<?xml version="1.0" standalone="no"?>
<!DOCTYPE svg PUBLIC "-//W3C//DTD SVG 20010904//EN"
 "http://www.w3.org/TR/2001/REC-SVG-20010904/DTD/svg10.dtd">
<svg version="1.0" xmlns="http://www.w3.org/2000/svg"
 width="250.000000pt" height="250.000000pt" viewBox="0 0 250.000000 250.000000"
 preserveAspectRatio="xMidYMid meet">
<metadata>
Created by potrace 1.14, written by Peter Selinger 2001-2017
</metadata>
<g transform="translate(0.000000,250.000000) scale(0.100000,-0.100000)"
fill="#000000" stroke="none">
<path d="M1235 2488 c-2 -7 -9 -39 -14 -71 -14 -79 -74 -189 -181 -332 -91
-121 -126 -190 -137 -272 -6 -42 -8 -44 -32 -39 -86 20 -180 17 -336 -9 -190
-33 -324 -32 -413 4 -102 40 -125 17 -42 -44 106 -78 166 -157 281 -370 36
-66 75 -121 118 -165 l63 -65 -43 -34 c-129 -103 -185 -195 -275 -451 -56
-162 -93 -238 -139 -289 -42 -46 -44 -59 -7 -66 15 -4 36 -8 47 -10 46 -10
243 20 402 61 95 24 179 44 186 44 8 0 22 -19 31 -42 39 -104 184 -254 303
-315 l55 -28 38 43 c21 23 53 71 71 107 19 36 37 65 41 65 4 0 23 -30 42 -67
19 -38 50 -86 69 -108 l35 -40 69 35 c94 47 225 179 276 278 25 46 44 72 55
72 10 0 75 -16 145 -35 173 -48 196 -52 312 -64 111 -11 184 -5 192 15 3 8 -9
30 -25 49 -52 58 -80 115 -141 288 -98 274 -145 353 -261 444 l-59 46 67 72
c48 52 86 108 136 201 83 156 144 235 242 315 41 33 74 64 74 70 0 15 -42 10
-100 -12 -91 -36 -232 -37 -415 -4 -147 27 -250 29 -336 9 -25 -6 -26 -4 -32
46 -9 75 -52 158 -151 290 -99 133 -155 238 -165 313 -4 29 -10 58 -15 65 -9
16 -25 15 -31 0z m106 -933 c137 -47 207 -205 148 -335 -26 -59 -53 -86 -114
-118 -68 -36 -179 -38 -242 -4 -194 102 -187 355 12 448 59 28 131 31 196 9z
m-368 -132 c-38 -91 -10 -219 65 -296 57 -60 105 -80 200 -85 77 -4 87 -2 147
27 76 38 127 97 150 174 19 63 19 101 1 161 -19 63 2 46 35 -27 35 -76 33
-191 -3 -269 -58 -125 -166 -190 -315 -190 -107 0 -169 21 -233 79 -95 85
-135 209 -105 324 13 55 56 139 70 139 2 0 -3 -17 -12 -37z m74 -643 c9 -25
40 -85 69 -135 88 -149 107 -199 108 -279 1 -119 -79 -296 -133 -296 -30 0
-133 74 -199 143 -64 67 -112 152 -112 198 0 44 80 139 117 139 28 0 100 -87
124 -148 13 -34 27 -62 31 -62 9 0 -11 65 -44 145 -22 55 -24 73 -23 215 0
110 5 164 14 185 l14 30 9 -45 c6 -25 17 -65 25 -90z m473 44 c6 -30 9 -58 5
-64 -3 -5 -6 -57 -6 -116 0 -98 -2 -112 -34 -189 -48 -116 -44 -137 8 -35 39
79 87 130 120 130 6 0 32 -22 59 -50 40 -42 48 -56 48 -87 0 -53 -45 -135
-110 -203 -58 -61 -172 -140 -200 -140 -54 0 -130 170 -130 290 0 85 16 130
90 255 76 128 97 177 106 244 6 48 9 52 20 36 7 -10 18 -42 24 -71z"/>
</g>
</svg>
